<?xml version="1.0" encoding="UTF-8"?>
<svg xmlns="http://www.w3.org/2000/svg" xmlns:xlink="http://www.w3.org/1999/xlink" width="16pt" height="16pt" viewBox="0 0 16 16" version="1.1">
<g id="surface2748227">
<path style=" stroke:none;fill-rule:nonzero;fill:rgb(100%,100%,100%);fill-opacity:1;" d="M 0.5 5.5 L 15.5 5.5 L 15.5 7.5 L 0.5 7.5 Z M 0.5 5.5 "/>
<path style=" stroke:none;fill-rule:nonzero;fill:rgb(0%,0%,0%);fill-opacity:1;" d="M 15 6 L 15 7 L 1 7 L 1 6 L 15 6 M 16 5 L 0 5 L 0 8 L 16 8 Z M 16 5 "/>
<path style=" stroke:none;fill-rule:nonzero;fill:rgb(100%,100%,100%);fill-opacity:1;" d="M 0.5 0.5 L 15.5 0.5 L 15.5 2.5 L 0.5 2.5 Z M 0.5 0.5 "/>
<path style=" stroke:none;fill-rule:nonzero;fill:rgb(0%,0%,0%);fill-opacity:1;" d="M 15 1 L 15 2 L 1 2 L 1 1 L 15 1 M 16 0 L 0 0 L 0 3 L 16 3 Z M 16 0 "/>
<path style=" stroke:none;fill-rule:nonzero;fill:rgb(100%,100%,100%);fill-opacity:1;" d="M 0.5 10.5 L 15.5 10.5 L 15.5 12.5 L 0.5 12.5 Z M 0.5 10.5 "/>
<path style=" stroke:none;fill-rule:nonzero;fill:rgb(0%,0%,0%);fill-opacity:1;" d="M 15 11 L 15 12 L 1 12 L 1 11 L 15 11 M 16 10 L 0 10 L 0 13 L 16 13 Z M 16 10 "/>
</g>
</svg>
