<?xml version="1.0" encoding="UTF-8" standalone="no"?>
<svg xmlns:xlink="http://www.w3.org/1999/xlink" xmlns="http://www.w3.org/2000/svg" xmlns:inkscape="http://www.inkscape.org/namespaces/inkscape" version="1.1" width="580.7324066162" height="240" id="svg2"><defs></defs><g id="p0th"> <path d="M20.5 95.5v-65h24v65h-24z " id="p0th-00I.a0102" transform="translate(166.3662033081,50)" style="fill-opacity:0.8; fill:#696969;" /> <path d="M12.5 95.5v-65h24.4873l17.0127 28.2461l17.0127 -28.2461h24.4873v55.7002c0 7.03125 3.18652 15.332 9.93848 18.3496l0.46582 0.208008l-0.21875 0.461914c-2.43457 5.16797 -9.63379 8.27441 -16.0146 8.27441c-11.6924 0 -21.7637 -12.6816 -21.7705 -28.9766 v-0.140625l12.7432 -21.0293l-1.66309 -1.1875l-23.1904 38.3398h-2.98047l-22.9141 -37.8848l-1.64551 1.14453l13.751 22.7344l-0.00195312 0.143555c-0.0742188 4.90527 -4.07715 8.8623 -8.99902 8.8623h-20.5z " id="p0th-00M.a0105" transform="translate(269.3662033081,50)" style="fill-opacity:0.8; fill:#696969;" /> <path d="M20.5 95.5v-65h24v65h-24z " id="p0th-00I.a0108" transform="translate(430.3662033081,50)" style="fill-opacity:0.8; fill:#696969;" /></g><g id="p1th"> <path d="M46.1162 72.7275l-9.5 -16.4551l-1.73242 1l9.5 16.4551zM8 65c0 -18.2158 14.5596 -33 32.5 -33s32.5 14.7842 32.5 33c0 9.72363 -4.14941 18.4707 -10.7461 24.5107l-0.202148 0.18457l-0.264648 -0.0703125c-1.5293 -0.408203 -3.13281 -0.625 -4.78711 -0.625h-6v2 h6c9.39648 0 17 7.85254 17 17.5v7h-29c-10.7041 0 -19.5 -7.55566 -19.5 -17v-4.22168c-10.3672 -5.51953 -17.5 -16.5225 -17.5 -29.2783z " id="p1th-00Q100" transform="translate(80.3662033081,50)" style="fill-opacity:0.8; fill:#088008;" /> <path d="M9.5 97.5v-23.5898l22.7998 -21.4268v-2.4834h-20.7998v-17.5h53.5v18.5869l-29.6504 29.2666l1.40137 1.4209l9.4043 -9.27441h8.84473c6.90039 0 12.5 4.70312 12.5 10.5v14.5h-58z " id="p1th-00Z103" transform="translate(192.3662033081,50)" style="fill-opacity:0.8; fill:#088008;" /> <path d="M5.97852 97.5l24.3252 -64.998h19.3867l24.6758 65.9785l-0.49707 0.161133c-6.90039 2.24219 -12.7617 3.85059 -18.543 3.85059c-7.22559 0 -13.8262 -5.04102 -13.8262 -11.9922v-18h10v-2h-23.5996v2h11.5996v14c0 6.08789 -5.12305 11 -11.4004 11h-22.1211z " id="p1th-00A106" transform="translate(335.3662033081,50)" style="fill-opacity:0.8; fill:#088008;" /> <path d="M5.97852 97.5l24.3252 -64.998h19.3867l24.6758 65.9785l-0.49707 0.161133c-6.90039 2.24219 -12.7617 3.85059 -18.543 3.85059c-7.22559 0 -13.8262 -5.04102 -13.8262 -11.9922v-18h10v-2h-23.5996v2h11.5996v14c0 6.08789 -5.12305 11 -11.4004 11h-22.1211z " id="p1th-00A109" transform="translate(456.3662033081,50)" style="fill-opacity:0.8; fill:#088008;" /></g><g id="p2th"> <path d="M10.5 36.5h28v39h2v-32c0 -13.791 11.5908 -25 23.2246 -25c6.35352 0 13.5527 3.1123 15.9863 8.28027l0.216797 0.461914l-0.464844 0.208008c-6.75195 3.01758 -9.96289 11.3633 -9.96289 18.3496v29.7002c0 14.6748 -13.2627 26.5 -29.5 26.5 s-29.5 -11.8252 -29.5 -26.5v-39z " id="p2th-00U.a1101" transform="translate(121.3662033081,50)" style="fill-opacity:0.8; fill:#0C199C;" /> <path d="M46.1162 76.7275l-9.5 -16.4551l-1.73242 1l9.5 16.4551zM8 69c0 -18.2158 14.5596 -33 32.5 -33s32.5 14.7842 32.5 33s-14.5596 33 -32.5 33s-32.5 -14.7842 -32.5 -33z " id="p2th-00O.a1104" transform="translate(228.3662033081,50)" style="fill-opacity:0.8; fill:#0C199C;" /> <path d="M12.5 101.5v-65h24.5869l21.6465 35.9385l1.47949 -1.41895l-12.0127 -19.9453v-7.57422c0 -13.7998 9.18359 -25 20.5 -25c6.29199 0 13.502 3.00586 15.9854 8.28027l0.217773 0.461914l-0.46582 0.208008c-6.63965 2.96777 -9.9375 11.2617 -9.9375 18.3496v55.7002 h-21.5898l-24.1143 -39.8838l-1.64551 1.14355l17.9512 29.6904l-0.00195312 0.141602c-0.0498047 4.92578 -4.0625 8.9082 -9 8.9082h-23.5996z " id="p2th-00N.a1107" transform="translate(379.3662033081,50)" style="fill-opacity:0.8; fill:#0C199C;" /></g><g id="p01h"> <path d="M20.5 95.5v-65h24v65h-24z " id="p01h-00I.a0102" transform="translate(166.3662033081,50)" style="fill-opacity:0.5; fill:#696969;" /> <path d="M12.5 95.5v-65h24.4873l17.0127 28.2461l17.0127 -28.2461h24.4873v55.7002c0 7.03125 3.18652 15.332 9.93848 18.3496l0.46582 0.208008l-0.21875 0.461914c-2.43457 5.16797 -9.63379 8.27441 -16.0146 8.27441c-11.6924 0 -21.7637 -12.6816 -21.7705 -28.9766 v-0.140625l12.7432 -21.0293l-1.66309 -1.1875l-23.1904 38.3398h-2.98047l-22.9141 -37.8848l-1.64551 1.14453l13.751 22.7344l-0.00195312 0.143555c-0.0742188 4.90527 -4.07715 8.8623 -8.99902 8.8623h-20.5z " id="p01h-00M.a0105" transform="translate(269.3662033081,50)" style="fill-opacity:0.5; fill:#696969;" /> <path d="M20.5 95.5v-65h24v65h-24z " id="p01h-00I.a0108" transform="translate(430.3662033081,50)" style="fill-opacity:0.5; fill:#696969;" /></g><g id="p11h"> <path d="M46.1162 72.7275l-9.5 -16.4551l-1.73242 1l9.5 16.4551zM8 65c0 -18.2158 14.5596 -33 32.5 -33s32.5 14.7842 32.5 33c0 9.72363 -4.14941 18.4707 -10.7461 24.5107l-0.202148 0.18457l-0.264648 -0.0703125c-1.5293 -0.408203 -3.13281 -0.625 -4.78711 -0.625h-6v2 h6c9.39648 0 17 7.85254 17 17.5v7h-29c-10.7041 0 -19.5 -7.55566 -19.5 -17v-4.22168c-10.3672 -5.51953 -17.5 -16.5225 -17.5 -29.2783z " id="p11h-00Q100" transform="translate(80.3662033081,50)" style="fill-opacity:0.5; fill:#088008;" /> <path d="M9.5 97.5v-23.5898l22.7998 -21.4268v-2.4834h-20.7998v-17.5h53.5v18.5869l-29.6504 29.2666l1.40137 1.4209l9.4043 -9.27441h8.84473c6.90039 0 12.5 4.70312 12.5 10.5v14.5h-58z " id="p11h-00Z103" transform="translate(192.3662033081,50)" style="fill-opacity:0.5; fill:#088008;" /> <path d="M5.97852 97.5l24.3252 -64.998h19.3867l24.6758 65.9785l-0.49707 0.161133c-6.90039 2.24219 -12.7617 3.85059 -18.543 3.85059c-7.22559 0 -13.8262 -5.04102 -13.8262 -11.9922v-18h10v-2h-23.5996v2h11.5996v14c0 6.08789 -5.12305 11 -11.4004 11h-22.1211z " id="p11h-00A106" transform="translate(335.3662033081,50)" style="fill-opacity:0.5; fill:#088008;" /> <path d="M5.97852 97.5l24.3252 -64.998h19.3867l24.6758 65.9785l-0.49707 0.161133c-6.90039 2.24219 -12.7617 3.85059 -18.543 3.85059c-7.22559 0 -13.8262 -5.04102 -13.8262 -11.9922v-18h10v-2h-23.5996v2h11.5996v14c0 6.08789 -5.12305 11 -11.4004 11h-22.1211z " id="p11h-00A109" transform="translate(456.3662033081,50)" style="fill-opacity:0.5; fill:#088008;" /></g><g id="p21h"> <path d="M10.5 36.5h28v39h2v-32c0 -13.791 11.5908 -25 23.2246 -25c6.35352 0 13.5527 3.1123 15.9863 8.28027l0.216797 0.461914l-0.464844 0.208008c-6.75195 3.01758 -9.96289 11.3633 -9.96289 18.3496v29.7002c0 14.6748 -13.2627 26.5 -29.5 26.5 s-29.5 -11.8252 -29.5 -26.5v-39z " id="p21h-00U.a1101" transform="translate(121.3662033081,50)" style="fill-opacity:0.5; fill:#0C199C;" /> <path d="M46.1162 76.7275l-9.5 -16.4551l-1.73242 1l9.5 16.4551zM8 69c0 -18.2158 14.5596 -33 32.5 -33s32.5 14.7842 32.5 33s-14.5596 33 -32.5 33s-32.5 -14.7842 -32.5 -33z " id="p21h-00O.a1104" transform="translate(228.3662033081,50)" style="fill-opacity:0.5; fill:#0C199C;" /> <path d="M12.5 101.5v-65h24.5869l21.6465 35.9385l1.47949 -1.41895l-12.0127 -19.9453v-7.57422c0 -13.7998 9.18359 -25 20.5 -25c6.29199 0 13.502 3.00586 15.9854 8.28027l0.217773 0.461914l-0.46582 0.208008c-6.63965 2.96777 -9.9375 11.2617 -9.9375 18.3496v55.7002 h-21.5898l-24.1143 -39.8838l-1.64551 1.14355l17.9512 29.6904l-0.00195312 0.141602c-0.0498047 4.92578 -4.0625 8.9082 -9 8.9082h-23.5996z " id="p21h-00N.a1107" transform="translate(379.3662033081,50)" style="fill-opacity:0.5; fill:#0C199C;" /></g></svg>